<svg width="1200" height="675" viewBox="0 0 1200 675" fill="none" xmlns="http://www.w3.org/2000/svg">
  <rect width="1200" height="675" fill="#0a0a0a"/>
  <rect x="0" y="0" width="1200" height="60" fill="#111111"/>
  <circle cx="30" cy="30" r="8" fill="#ff5f57"/>
  <circle cx="55" cy="30" r="8" fill="#febc2e"/>
  <circle cx="80" cy="30" r="8" fill="#28c840"/>
  <rect x="200" y="20" width="800" height="20" rx="10" fill="#1a1a2e"/>
  <text x="600" y="35" text-anchor="middle" fill="#666" font-family="system-ui" font-size="12">saas-idaes.vercel.app</text>
  <rect x="100" y="120" width="400" height="50" rx="8" fill="#1a1a2e"/>
  <text x="300" y="152" text-anchor="middle" fill="#8b5cf6" font-family="system-ui" font-weight="bold" font-size="24">SAAS-IDAES</text>
  <text x="600" y="250" text-anchor="middle" fill="#ffffff" font-family="system-ui" font-weight="bold" font-size="36">Ton site pro, en ligne</text>
  <text x="600" y="295" text-anchor="middle" fill="#ffffff" font-family="system-ui" font-weight="bold" font-size="36">en 5 minutes.</text>
  <text x="600" y="340" text-anchor="middle" fill="#888888" font-family="system-ui" font-size="16">Pas besoin de savoir coder. Réponds à quelques questions,</text>
  <text x="600" y="365" text-anchor="middle" fill="#888888" font-family="system-ui" font-size="16">choisis tes couleurs, et ton site est prêt.</text>
  <rect x="420" y="400" width="360" height="50" rx="25" fill="url(#grad1)"/>
  <text x="600" y="432" text-anchor="middle" fill="#ffffff" font-family="system-ui" font-weight="bold" font-size="16">Créer mon site gratuitement</text>
  <g transform="translate(150, 500)">
    <rect width="180" height="80" rx="12" fill="#1a1a2e"/>
    <text x="90" y="35" text-anchor="middle" fill="#8b5cf6" font-family="system-ui" font-weight="bold" font-size="24">200+</text>
    <text x="90" y="58" text-anchor="middle" fill="#888" font-family="system-ui" font-size="13">Sites créés</text>
  </g>
  <g transform="translate(370, 500)">
    <rect width="180" height="80" rx="12" fill="#1a1a2e"/>
    <text x="90" y="35" text-anchor="middle" fill="#8b5cf6" font-family="system-ui" font-weight="bold" font-size="24">4.9/5</text>
    <text x="90" y="58" text-anchor="middle" fill="#888" font-family="system-ui" font-size="13">Satisfaction</text>
  </g>
  <g transform="translate(590, 500)">
    <rect width="180" height="80" rx="12" fill="#1a1a2e"/>
    <text x="90" y="35" text-anchor="middle" fill="#8b5cf6" font-family="system-ui" font-weight="bold" font-size="24">5 min</text>
    <text x="90" y="58" text-anchor="middle" fill="#888" font-family="system-ui" font-size="13">Création</text>
  </g>
  <g transform="translate(810, 500)">
    <rect width="180" height="80" rx="12" fill="#1a1a2e"/>
    <text x="90" y="35" text-anchor="middle" fill="#8b5cf6" font-family="system-ui" font-weight="bold" font-size="24">24h</text>
    <text x="90" y="58" text-anchor="middle" fill="#888" font-family="system-ui" font-size="13">Support</text>
  </g>
  <defs>
    <linearGradient id="grad1" x1="0%" y1="0%" x2="100%" y2="0%">
      <stop offset="0%" style="stop-color:#8b5cf6"/>
      <stop offset="100%" style="stop-color:#3b82f6"/>
    </linearGradient>
  </defs>
</svg>
